<?xml version="1.0" encoding="UTF-8" standalone="no"?>
<!-- Created with Inkscape (http://www.inkscape.org/) -->

<svg
   xmlns:dc="http://purl.org/dc/elements/1.1/"
   xmlns:cc="http://creativecommons.org/ns#"
   xmlns:rdf="http://www.w3.org/1999/02/22-rdf-syntax-ns#"
   xmlns:svg="http://www.w3.org/2000/svg"
   xmlns="http://www.w3.org/2000/svg"
   xmlns:sodipodi="http://sodipodi.sourceforge.net/DTD/sodipodi-0.dtd"
   xmlns:inkscape="http://www.inkscape.org/namespaces/inkscape"
   id="svg16522"
   version="1.1"
   inkscape:version="0.91 r13725"
   xml:space="preserve"
   width="354.32501"
   height="531.5"
   viewBox="0 0 354.32501 531.5"
   sodipodi:docname="Beverlogo_IRL.svg"><metadata
     id="metadata16528"><rdf:RDF><cc:Work
         rdf:about=""><dc:format>image/svg+xml</dc:format><dc:type
           rdf:resource="http://purl.org/dc/dcmitype/StillImage" /><dc:title></dc:title></cc:Work></rdf:RDF></metadata><defs
     id="defs16526"><clipPath
       clipPathUnits="userSpaceOnUse"
       id="clipPath16536"><path
         d="m 0,425.2 283.46,0 L 283.46,0 0,0 0,425.2 Z"
         id="path16538"
         inkscape:connector-curvature="0" /></clipPath></defs><sodipodi:namedview
     pagecolor="#ffffff"
     bordercolor="#666666"
     borderopacity="1"
     objecttolerance="10"
     gridtolerance="10"
     guidetolerance="10"
     inkscape:pageopacity="0"
     inkscape:pageshadow="2"
     inkscape:window-width="1920"
     inkscape:window-height="1056"
     id="namedview16524"
     showgrid="false"
     inkscape:zoom="0.44402634"
     inkscape:cx="177.16251"
     inkscape:cy="265.75"
     inkscape:window-x="0"
     inkscape:window-y="24"
     inkscape:window-maximized="1"
     inkscape:current-layer="g16530" /><g
     id="g16530"
     inkscape:groupmode="layer"
     inkscape:label="Beverlogo_IRL"
     transform="matrix(1.25,0,0,-1.25,0,531.5)"><g
       id="g16532"><g
         id="g16534"
         clip-path="url(#clipPath16536)"><g
           id="g16540"
           transform="translate(218.4243,287.3333)"><path
             d="m 0,0 c 5.167,-4.5 16.167,-15.167 16.167,-28 0,-12.833 -15.667,-33.5 -29.334,-36 -13.718,-2.509 -34.16,-4.407 -48,-5.5 -12.666,-1 -29.886,-0.081 -38.666,8.5 -7.334,7.167 -10.5,15 -11,22.167 -0.743,10.641 3,19.5 8.666,27.166 5.667,7.667 6.834,10.667 8.5,20.834 1.667,10.166 6.334,26 41.167,27.166 C -17.667,37.5 -11.5,23 -9.833,19 -8.167,15 -5.167,4.5 0,0"
             style="fill:#d49e68;fill-opacity:1;fill-rule:nonzero;stroke:none"
             id="path16542"
             inkscape:connector-curvature="0" /></g><g
           id="g16544"
           transform="translate(260.3827,59.5)"><path
             d="m 0,0 c -3.375,-1.875 -10.458,0.5 -31.458,5.667 -21,5.166 -29.167,3.5 -36.834,3 -7.666,-0.5 -6.666,4.666 -6.666,9.333 0,4.667 -0.667,11.333 -0.667,11.333 -19.667,-6.5 -36.167,-0.5 -36.167,-0.5 0,0 -1.333,-7.166 5,-11.833 6.334,-4.667 4.834,-7.333 -1.333,-22.5 -6.167,-15.167 -19.333,-23.333 -23.833,-25 -4.5,-1.667 -13,-1 -13.334,2.5 -0.333,3.5 5.334,9.5 14.334,16 9,6.5 10.333,10.833 10.333,10.833 -2.833,-4.333 -9.333,-7.333 -16.167,-13.166 -6.833,-5.834 -11.833,-12.334 -11.833,-12.334 -13.667,4.834 -7.5,9.167 -3.333,12.167 4.166,3 19,12.5 21.5,15 2.5,2.5 -0.834,0.5 -7.167,-3.167 -6.333,-3.666 -21.667,-14.833 -21.667,-14.833 -5.5,7.667 3,12.333 12.834,17.833 9.833,5.5 22.333,15.167 23.333,16.167 1,1 -1.167,16.167 -1.167,16.167 -32,17 -36.166,41.333 -36,53.5 0.167,12.166 12.667,29.166 12.667,29.166 20,10.5 24.833,20 24.833,20 -7,-9.5 -25,-17.5 -27.333,-18.666 -2.333,-1.167 -7.667,-12.667 -7.667,-12.667 0,0 -6.166,8.5 -6.666,10.833 -0.5,2.334 4.333,11.334 9.833,20.5 5.5,9.167 17.167,16.167 22.833,16.334 5.667,0.166 3,0.833 3,0.833 -2.833,1.5 -3,3.833 -3,3.833 0,0 4.167,-1.333 18.167,-1.666 14,-0.334 61.75,6.333 61.75,6.333 1.25,-15.5 16,-22 23.5,-49.25 7.5,-27.25 -0.75,-44.25 -9.25,-57.125 -8.5,-12.875 -26.5,-22.375 -26.5,-22.375 -0.375,-4 0.875,-8 2.625,-9.5 1.75,-1.5 19.375,0 37.125,1.25 C -6.625,25.25 -2,18.125 -2,18.125 -11.625,21.875 -21.375,19.75 -21.375,19.75 6,19.125 3.375,9.625 3.375,9.625 -9.875,17.125 -19.5,13.75 -19.5,13.75 -12.875,14.25 -0.875,11.5 2.5,8.875 5.875,6.25 3.375,1.875 0,0"
             style="fill:#d49e68;fill-opacity:1;fill-rule:nonzero;stroke:none"
             id="path16546"
             inkscape:connector-curvature="0" /></g><g
           id="g16548"
           transform="translate(132.6011,304.2736)"><path
             d="m 0,0 c 0,0 15.657,4.393 15.657,-1.107 0,-3.167 -2.003,-4.263 -4.167,-4.167 -3.324,0.149 -4.167,3 -4.667,3.834 C 6.323,-0.607 3.833,-0.167 0,0"
             style="fill:#171717;fill-opacity:1;fill-rule:nonzero;stroke:none"
             id="path16550"
             inkscape:connector-curvature="0" /></g><g
           id="g16552"
           transform="translate(204.4243,304.3333)"><path
             d="m 0,0 c 0,0 -11.497,3.008 -14.229,0.114 -2.271,-2.406 0.316,-5.893 3.649,-5.82 3.996,0.087 5.413,4.373 5.413,4.373 L 0,0 Z"
             style="fill:#171717;fill-opacity:1;fill-rule:nonzero;stroke:none"
             id="path16554"
             inkscape:connector-curvature="0" /></g><g
           id="g16556"
           transform="translate(167.5396,272.5)"><path
             d="m 0,0 c -19.292,4.75 -25.667,19.167 -25.667,19.167 -1.58,-1.317 -6.267,-7.188 -6.777,-19.154 5.006,-0.576 10.971,-1.949 18.096,-4.53 0,0 0.576,-2.113 -1.537,-2.209 0,0 -7.463,3.567 -16.602,4.887 -0.014,-2.417 0.142,-5.062 0.515,-7.947 2.729,0.05 5.733,-0.09 9.075,-0.494 0,0 1.056,-1.537 -0.481,-2.305 0,0 -3.469,0.586 -8.257,0.576 0.537,-3.127 1.349,-5.966 2.359,-8.52 3.23,1.229 6.93,2.415 11.182,3.525 0,0 2.401,-0.384 1.537,-2.594 0,0 -5.384,-0.728 -11.895,-2.857 6.28,-13.742 17.952,-18.712 17.952,-18.712 5,2.167 11.333,8.5 11.333,8.5 L 0,0 Z"
             style="fill:#dbb697;fill-opacity:1;fill-rule:nonzero;stroke:none"
             id="path16558"
             inkscape:connector-curvature="0" /></g><g
           id="g16560"
           transform="translate(194.3998,265.0057)"><path
             d="M 0,0 C 3.93,0.223 7.406,0.208 10.51,0.021 10.475,3.135 10.147,5.971 9.633,8.533 0.058,6.799 -7.781,2.786 -7.781,2.786 -10.182,3.266 -9.318,5.379 -9.318,5.379 -2.09,8.117 4.025,9.695 9.2,10.463 6.61,20.84 1.098,26.119 1.098,26.119 -9.777,10.494 -24.152,7.494 -24.152,7.494 l 0.125,-32.25 c 5.375,-6.875 16.5,-10 16.5,-10 0,0 11.046,7.83 15.794,20.571 -7.961,3.03 -14.991,4.003 -14.991,4.003 -0.96,1.729 1.153,2.497 1.153,2.497 5.742,-1.29 10.52,-2.825 14.528,-4.48 0.596,1.953 1.038,4.008 1.266,6.159 0.149,1.408 0.235,2.766 0.272,4.082 C 4.652,-1.761 0.192,-2.498 0.192,-2.498 -1.249,-1.057 0,0 0,0"
             style="fill:#dbb697;fill-opacity:1;fill-rule:nonzero;stroke:none"
             id="path16562"
             inkscape:connector-curvature="0" /></g><g
           id="g16564"
           transform="translate(147.5761,303.1443)"><path
             d="m 0,0 c 0,-0.882 -0.715,-1.597 -1.597,-1.597 -0.882,0 -1.597,0.715 -1.597,1.597 0,0.882 0.715,1.597 1.597,1.597 C -0.715,1.597 0,0.882 0,0"
             style="fill:#ffffff;fill-opacity:1;fill-rule:nonzero;stroke:none"
             id="path16566"
             inkscape:connector-curvature="0" /></g><g
           id="g16568"
           transform="translate(196.0828,303.1443)"><path
             d="m 0,0 c 0,-0.882 -0.715,-1.597 -1.597,-1.597 -0.882,0 -1.597,0.715 -1.597,1.597 0,0.882 0.715,1.597 1.597,1.597 C -0.715,1.597 0,0.882 0,0"
             style="fill:#ffffff;fill-opacity:1;fill-rule:nonzero;stroke:none"
             id="path16570"
             inkscape:connector-curvature="0" /></g><g
           id="g16572"
           transform="translate(194.5919,262.5082)"><path
             d="M 0,0 C 0,0 4.46,0.737 10.302,0.574 10.266,-0.742 10.18,-2.101 10.031,-3.508 9.803,-5.659 9.361,-7.714 8.765,-9.667 c -4.008,1.655 -8.786,3.19 -14.528,4.48 0,0 -2.114,-0.768 -1.153,-2.497 0,0 7.03,-0.974 14.991,-4.004 -4.748,-12.74 -15.794,-20.57 -15.794,-20.57 0,0 -11.125,3.125 -16.5,10 l -0.125,32.25 c 0,0 14.375,3 25.25,18.625 0,0 5.512,-5.279 8.102,-15.656 -5.175,-0.768 -11.29,-2.347 -18.518,-5.084 0,0 -0.864,-2.113 1.537,-2.594 0,0 7.839,4.013 17.414,5.748 C 9.955,8.469 10.283,5.632 10.318,2.519 7.214,2.705 3.738,2.72 -0.192,2.498 -0.192,2.498 -1.441,1.441 0,0 m -15.719,-50.758 c -2.5,-0.5 -6.562,0.375 -6.562,0.375 l -1.424,24.75 -0.014,0.25 c 5.063,-5.125 14.313,-8.438 14.313,-8.438 -1,-6.875 -6.313,-16.937 -6.313,-16.937 m -13.5,0.875 c 0,0 -5.437,9.062 -7.25,16.562 0,0 7,3.625 10.688,8 l 1.75,-24.625 -5.188,0.063 z m -26.285,37.42 c 6.511,2.129 11.894,2.857 11.894,2.857 0.865,2.21 -1.537,2.594 -1.537,2.594 -4.251,-1.11 -7.951,-2.296 -11.181,-3.525 -1.011,2.554 -1.822,5.393 -2.36,8.52 4.789,0.009 8.258,-0.576 8.258,-0.576 1.537,0.768 0.481,2.305 0.481,2.305 -3.342,0.404 -6.346,0.544 -9.075,0.494 -0.373,2.884 -0.529,5.53 -0.515,7.947 9.138,-1.32 16.602,-4.887 16.602,-4.887 2.113,0.096 1.537,2.209 1.537,2.209 -7.125,2.58 -13.091,3.954 -18.096,4.53 0.51,11.966 5.197,17.837 6.777,19.154 0,0 6.375,-14.417 25.667,-19.167 l 0.833,-32.667 c 0,0 -6.333,-6.333 -11.333,-8.5 0,0 -11.673,4.97 -17.952,18.712 M 12.831,2.323 c -0.044,3.205 -0.474,6.251 -1.14,9.068 8.431,1.154 17.798,0.264 24.234,-6.684 0,0 -4.529,10.757 -24.715,8.541 -1.484,5.278 -3.718,9.645 -5.554,12.619 -6.25,10.125 -22.625,10.875 -31.75,10.875 -9.875,0 -16,0.25 -24.875,-3.75 -5.114,-2.305 -10.087,-10.96 -10.934,-22.763 -17.224,1.172 -21.666,-7.731 -21.666,-7.731 6.018,5.614 14.157,6.636 21.573,5.942 -0.093,-2.648 0.022,-5.44 0.385,-8.341 -18.982,-1.313 -22.247,-12.874 -22.247,-12.874 4.756,8.105 14.739,10.313 22.564,10.694 0.133,-0.803 0.278,-1.61 0.45,-2.427 0.52,-2.47 1.276,-4.786 2.192,-6.954 -22.2,-9.246 -19.25,-20.429 -19.25,-20.429 1.549,9.709 11.343,15.416 20.07,18.621 6.425,-13.33 18.738,-20.363 18.738,-20.363 5.875,-16.25 9.125,-17.875 9.125,-17.875 2.25,-0.5 6.75,0 6.75,0 2.5,-0.625 7.25,-0.5 7.25,-0.5 3.25,0.5 8.875,18 8.875,18 9.024,7.098 14.326,14.447 17.164,21.528 7.742,-3.241 15.878,-8.461 19.035,-16.625 0,0 -0.45,10.46 -18.313,18.562 1.29,3.783 1.897,7.474 2.019,10.992 8.071,-0.582 17.782,-3.093 22.25,-11.207 0,0 -0.991,11.002 -22.23,13.081"
             style="fill:#171717;fill-opacity:1;fill-rule:nonzero;stroke:none"
             id="path16574"
             inkscape:connector-curvature="0" /></g><g
           id="g16576"
           transform="translate(240.2577,186)"><path
             d="M 0,0 C 0.667,-6.333 -5,-13.5 -5,-13.5 -7.167,-2.333 -23.667,24.333 -23.667,24.333 -15.167,18.667 -0.825,7.834 0,0"
             style="fill:#d49e68;fill-opacity:1;fill-rule:nonzero;stroke:none"
             id="path16578"
             inkscape:connector-curvature="0" /></g><g
           id="g16580"
           transform="translate(97.9243,137)"><path
             d="m 0,0 c -52,75.333 -62.833,139 -62.833,139 -7.834,38 -2.167,66.167 11.333,75.833 22.504,16.114 57.639,2.611 83.5,-7.833 26,-10.5 39.667,-13 39.667,-13 -7.5,-1.667 -12,-4.667 -12.5,-5 -11.834,-0.167 -23.334,-7.167 -23.334,-7.167 0,18.834 -10.166,16.667 -13.5,10.334 -3.333,-6.334 8.834,-13.5 8.834,-13.5 C 26,175 24.167,169.5 23.5,159.167 22.833,148.833 20,147.167 15.167,141 c -4.834,-6.167 -8,-11.667 -9.5,-28 C 4.167,96.667 18.5,86 18.5,86 L 20.667,74.167 C 5,65.667 -1.5,47 -4.167,38.833 -6.833,30.667 3.667,24 3.667,24 -1.667,14.5 0.284,-0.411 0,0"
             style="fill:#5e4d24;fill-opacity:1;fill-rule:nonzero;stroke:none"
             id="path16582"
             inkscape:connector-curvature="0" /></g><g
           id="g16584"
           transform="translate(195.9243,393)"><path
             d="m 0,0 c 24.456,-2.903 61.333,-18.5 57.333,-34.833 -5.539,-22.618 -35.666,-25.334 -35.666,-25.334 -8.667,7.834 -11,0 -11,0 -34.417,1.334 -51.084,11.167 -86.334,26.917 -35.25,15.75 -68,3 -68,3 C -96.417,9.5 -23.167,2.75 0,0"
             style="fill:#8d6f37;fill-opacity:1;fill-rule:nonzero;stroke:none"
             id="path16586"
             inkscape:connector-curvature="0" /></g><g
           id="g16588"
           transform="translate(182.8261,294.9814)"><path
             d="M 0,0 C 4.238,-0.508 7.55,-1.955 7.397,-3.233 7.244,-4.511 3.684,-5.135 -0.554,-4.627 -4.793,-4.119 -8.105,-2.672 -7.952,-1.394 -7.798,-0.116 -4.238,0.508 0,0"
             style="fill:#ffffff;fill-opacity:1;fill-rule:nonzero;stroke:none"
             id="path16590"
             inkscape:connector-curvature="0" /></g><g
           id="g16592"
           transform="translate(130.7577,318.3333)"><path
             d="M 0,0 C 0,0 -11.5,6.333 -7.333,11.333 -3.167,16.333 1.333,11.667 0,0"
             style="fill:#d4a57b;fill-opacity:1;fill-rule:nonzero;stroke:none"
             id="path16594"
             inkscape:connector-curvature="0" /></g><g
           id="g16596"
           transform="translate(208.2577,318)"><path
             d="M 0,0 C 0,0 -1,15.667 3.833,14.667 8.667,13.667 13,9.667 0,0"
             style="fill:#d4a57b;fill-opacity:1;fill-rule:nonzero;stroke:none"
             id="path16598"
             inkscape:connector-curvature="0" /></g><g
           id="g16600"
           transform="translate(260.3827,59.5)"><path
             d="m 0,0 c -3.375,-1.875 -10.458,0.5 -31.458,5.667 -21,5.166 -29.167,3.5 -36.834,3 -7.666,-0.5 -6.666,4.666 -6.666,9.333 0,4.667 -0.667,11.333 -0.667,11.333 -19.667,-6.5 -36.167,-0.5 -36.167,-0.5 0,0 -1.333,-7.166 5,-11.833 6.334,-4.667 4.834,-7.333 -1.333,-22.5 -6.167,-15.167 -19.333,-23.333 -23.833,-25 -4.5,-1.667 -13,-1 -13.334,2.5 -0.333,3.5 5.334,9.5 14.334,16 9,6.5 10.333,10.833 10.333,10.833 -2.833,-4.333 -9.333,-7.333 -16.167,-13.166 -6.833,-5.834 -11.833,-12.334 -11.833,-12.334 -13.667,4.834 -7.5,9.167 -3.333,12.167 4.166,3 19,12.5 21.5,15 2.5,2.5 -0.834,0.5 -7.167,-3.167 -6.333,-3.666 -21.667,-14.833 -21.667,-14.833 -5.5,7.667 3,12.333 12.834,17.833 9.833,5.5 22.333,15.167 23.333,16.167 1,1 -1.167,16.167 -1.167,16.167 -32,17 -36.166,41.333 -36,53.5 0.167,12.166 12.667,29.166 12.667,29.166 20,10.5 24.833,20 24.833,20 -7,-9.5 -25,-17.5 -27.333,-18.666 -2.333,-1.167 -7.667,-12.667 -7.667,-12.667 0,0 -6.166,8.5 -6.666,10.833 -0.5,2.334 4.333,11.334 9.833,20.5 5.5,9.167 17.167,16.167 22.833,16.334 5.667,0.166 3,0.833 3,0.833 -2.833,1.5 -3,3.833 -3,3.833 0,0 4.167,-1.333 18.167,-1.666 14,-0.334 61.75,6.333 61.75,6.333 1.25,-15.5 16,-22 23.5,-49.25 7.5,-27.25 -0.75,-44.25 -9.25,-57.125 -8.5,-12.875 -26.5,-22.375 -26.5,-22.375 -0.375,-4 0.875,-8 2.625,-9.5 1.75,-1.5 19.375,0 37.125,1.25 C -6.625,25.25 -2,18.125 -2,18.125 -11.625,21.875 -21.375,19.75 -21.375,19.75 6,19.125 3.375,9.625 3.375,9.625 -9.875,17.125 -19.5,13.75 -19.5,13.75 -12.875,14.25 -0.875,11.5 2.5,8.875 5.875,6.25 3.375,1.875 0,0 m -162.458,77.5 c -52,75.333 -62.834,139 -62.834,139 -7.833,38 -2.166,66.167 11.334,75.833 22.503,16.114 57.638,2.611 83.5,-7.833 26,-10.5 39.666,-13 39.666,-13 -7.5,-1.667 -12,-4.667 -12.5,-5 -11.833,-0.167 -23.333,-7.167 -23.333,-7.167 0,18.834 -10.167,16.667 -13.5,10.334 -3.333,-6.334 8.833,-13.5 8.833,-13.5 -5.166,-3.667 -7,-9.167 -7.666,-19.5 -0.667,-10.334 -3.5,-12 -8.334,-18.167 -4.833,-6.167 -8,-11.667 -9.5,-28 -1.5,-16.333 12.834,-27 12.834,-27 l 2.166,-11.833 c -15.666,-8.5 -22.166,-27.167 -24.833,-35.334 -2.667,-8.166 7.833,-14.833 7.833,-14.833 -5.333,-9.5 -3.382,-24.411 -3.666,-24 m 98,256 c 24.455,-2.903 61.333,-18.5 57.333,-34.833 -5.539,-22.618 -35.667,-25.334 -35.667,-25.334 -8.666,7.834 -11,0 -11,0 -34.416,1.334 -51.083,11.167 -86.333,26.917 -35.25,15.75 -68,3 -68,3 47.25,39.75 120.5,33 143.667,30.25 m 12.333,-75 c 0,0 -1,15.667 3.833,14.667 4.834,-1 9.167,-5 -3.833,-14.667 m -37.167,8 7.5,3.167 c 0,0 13.167,-2 27.334,-1.834 l -0.334,-9.333 c 0,0 -15.666,8.667 -34.5,8 m -40.333,-7.667 c 0,0 -11.5,6.334 -7.333,11.334 4.166,5 8.666,0.333 7.333,-11.334 m -4.333,-104.5 c -2,-0.166 -4.667,-1.666 -4.667,-1.666 l -1.5,8 c 2.833,-2.167 5.5,-3.667 5.5,-3.667 l 0.667,-2.667 z m 92,73.5 c 5.166,-4.5 16.166,-15.166 16.166,-28 0,-12.833 -15.666,-33.5 -29.333,-36 -13.719,-2.509 -34.161,-4.407 -48,-5.5 -12.667,-1 -29.886,-0.08 -38.667,8.5 -7.333,7.167 -10.5,15 -11,22.167 -0.742,10.641 3,19.5 8.667,27.167 5.667,7.666 6.833,10.666 8.5,20.833 1.667,10.167 6.333,26 41.167,27.167 34.833,1.166 41,-13.334 42.666,-17.334 1.667,-4 4.667,-14.5 9.834,-19 M -20.125,126.5 c 0.667,-6.333 -5,-13.5 -5,-13.5 -2.167,11.167 -18.667,37.833 -18.667,37.833 8.5,-5.666 22.842,-16.499 23.667,-24.333 m 21,-107.833 c -5,5.166 -6.5,7.333 -20.167,7.166 -13.666,-0.166 -24.833,-2.5 -31.5,-2.333 -6.666,0.167 -9.666,1.333 -9,7.167 0,0 23.834,13.5 32,37.666 8.167,24.167 4.167,39.167 4.167,39.167 0,0 7.667,10 7.667,20.167 0,5.166 -13.167,15.666 -29.5,29 l -1.167,5.666 c 0,0 18.667,12 23,28.167 4.333,16.167 -2,25.667 -10.667,34.167 -8.666,8.5 -12,13.166 -17,30 0,0 5.167,3.5 11.167,13.833 0,0 39.5,4.333 39.5,32.333 0,28 -41.667,40.167 -99.667,40.167 -58,0 -93.833,-11 -115.833,-37.667 -22,-26.666 -24.5,-66.583 -8.75,-113.083 15.75,-46.5 41.25,-94 67,-130.75 0,0 7.75,-18.167 26.75,-27.833 2.418,-1.231 5.333,-7.5 5.167,-11 -0.167,-3.5 -2.667,-5.5 -12.667,-11.334 -10,-5.833 -26,-15.5 -26,-23 0,-7.5 15.667,-19.833 29.667,-19.833 14,0 29.333,25.333 32.5,33.833 3.166,8.5 5.5,12.834 0.666,17.167 -4.833,4.333 -5.333,5.833 -5.333,5.833 0,0 14.333,-1.5 28.833,2 0,0 1.334,-4.833 0.834,-8.333 -0.5,-3.5 1.833,-8.833 5,-10.167 3.166,-1.333 17,0.834 31.833,-2.833 14.833,-3.667 29,-6.833 35.833,-6.833 6.834,0 10.5,4.5 10.5,8.333 0,3.833 0.167,8 -4.833,13.167"
             style="fill:#171717;fill-opacity:1;fill-rule:nonzero;stroke:none"
             id="path16602"
             inkscape:connector-curvature="0" /></g><g
           id="g16604"
           transform="translate(170.8872,236.8755)"><path
             d="m 0,0 1.423,-24.75 c 0,0 4.063,-0.875 6.563,-0.375 0,0 5.312,10.062 6.312,16.937 0,0 -9.25,3.313 -14.312,8.438 L 0,0 Z"
             style="fill:#ffffff;fill-opacity:1;fill-rule:nonzero;stroke:none"
             id="path16606"
             inkscape:connector-curvature="0" /></g><g
           id="g16608"
           transform="translate(158.1229,229.1875)"><path
             d="M 0,0 C 1.812,-7.5 7.25,-16.562 7.25,-16.562 L 12.438,-16.625 10.688,8 C 7,3.625 0,0 0,0"
             style="fill:#ffffff;fill-opacity:1;fill-rule:nonzero;stroke:none"
             id="path16610"
             inkscape:connector-curvature="0" /></g><g
           id="g16612"
           transform="translate(174.4834,148.7748)"><path
             d="m 0,0 c 0,-3.602 -9.615,-26.78 -22.805,-26.778 -7.498,10e-4 -11.107,6.627 -10.701,11.495 0.954,11.442 6.609,8.132 3.496,8.794 -4.045,0.86 -9.655,6.098 -9.641,12.502 0.023,10.732 14.912,12.872 24.368,6.78 C -4.388,5.774 0,6.357 0,0"
             style="fill:#56c149;fill-opacity:1;fill-rule:nonzero;stroke:none"
             id="path16614"
             inkscape:connector-curvature="0" /></g><g
           id="g16616"
           transform="translate(173.7889,150.7057)"><path
             d="m 0,0 c -3.504,0.834 -23.826,15.553 -20.771,28.385 1.737,7.294 9.018,9.27 13.66,7.749 10.911,-3.577 6.381,-8.312 7.746,-5.437 1.773,3.736 8.168,7.98 14.394,6.485 10.435,-2.507 9.07,-17.487 0.955,-25.276 C 6.633,2.932 6.184,-1.472 0,0"
             style="fill:#56c149;fill-opacity:1;fill-rule:nonzero;stroke:none"
             id="path16618"
             inkscape:connector-curvature="0" /></g><g
           id="g16620"
           transform="translate(176.2872,154.2286)"><path
             d="m 0,0 c 2.069,2.949 23.252,16.4 34.049,8.823 6.137,-4.307 5.285,-11.804 2.157,-15.556 -7.352,-8.819 -10.08,-2.861 -7.913,-5.191 2.818,-3.027 4.82,-10.624 1.131,-15.858 -6.183,-8.773 -17.534,-4.132 -24.95,8.317 C -2.414,-7.903 -3.651,-5.204 0,0"
             style="fill:#56c149;fill-opacity:1;fill-rule:nonzero;stroke:none"
             id="path16622"
             inkscape:connector-curvature="0" /></g><g
           id="g16624"
           transform="translate(173.6623,125.3339)"><path
             d="M 0,0 C 1.216,2.581 2.808,15.309 2.384,18.965 2.264,20 1.579,24.209 0.877,24.209 -0.996,24.209 0.265,15.786 -1.43,7.416 -1.696,6.102 -3.383,1.035 -6.251,-3.178 c -2.769,-4.069 -6.728,-7.311 -6.728,-7.311 0,0 3.288,-3.178 4.079,-3.178 1.873,0 4.583,4.503 8.9,13.667"
             style="fill:#56c149;fill-opacity:1;fill-rule:nonzero;stroke:none"
             id="path16626"
             inkscape:connector-curvature="0" /></g></g></g></g></svg>